<svg width="84" height="76" viewBox="0 0 84 76" fill="none" xmlns="http://www.w3.org/2000/svg">
<g clip-path="url(#clip0_67_98)">
<path d="M1.8222 12.6013L1.66224 12.5296L1.12638 11.9783L1.03707 11.694L0.769135 11.4097V11.0178L0.233273 9.5579V8.66787L0.0719815 8.543V7.88411L0 7.02994V6.46005L0.0893103 6.0509L0.23194 5.85563L0.0706485 5.48234L0.355908 3.88028L0.695821 3.43527L0.65983 2.97298L0.731812 2.63424L1.12504 2.02981L2.00082 0.997635L2.53668 0.552618L3.96431 0.0890034L4.64281 0L5.78651 0.14214L6.35836 0.302877L7.07285 0.623024L7.55539 0.996307L7.66203 1.47719L8.12591 1.81594L8.19789 2.20782L8.01927 2.63556L7.67936 2.83084H7.21548L6.91155 2.6701L6.62629 2.31409L6.14375 1.99394L5.50125 1.62066L5.14401 1.37092L4.91207 1.35365L4.44819 1.42538L3.69771 1.65653L3.4831 1.9594L3.01922 2.20914L2.32207 3.02744V3.34759L2.17944 3.63187L1.89418 3.95202L2.10879 4.30803L2.0728 4.46744L1.75155 4.75172L1.89418 5.39201L1.8222 5.74803L1.73289 6.81607L1.80487 7.51083L1.73289 7.90271L1.80487 8.09798L1.85819 8.88174L1.96483 9.14875L2.07147 9.64691L2.25009 10.1278L2.32207 10.6977L2.39405 10.893L2.66198 11.1241L2.87659 11.427L2.85926 11.6223L3.14452 11.8534L3.91233 12.1204L4.69879 12.2625L5.73452 12.0845L6.2344 11.9251H6.44901L6.68095 11.3738L7.02086 10.7149L7.28879 10.0561L7.5034 9.77178L7.28879 9.27362L7.32478 8.97075L6.7356 8.81001L5.86116 8.73828L5.37862 8.82728L4.87874 8.70241L4.6468 8.54167L4.5215 8.23879L4.7721 7.91865L4.54016 7.77651L5.04004 7.38463L5.53991 7.31289H8.21922L8.59379 7.43776L8.95103 7.74064L9.25495 8.23879L9.29094 8.52307L9.12965 8.82595L9.21896 9.16469L9.12965 9.52071L9.02301 10.161L8.66577 10.9262L8.71909 11.0152L8.28987 11.7272L8.21789 11.9225L7.94995 12.4034L7.77133 12.5986L7.11017 13.0795L6.82491 13.3465L5.25331 13.8447H4.05629L3.84168 13.6839L3.05521 13.5591L2.23409 13.1858L1.82353 12.5986L1.8222 12.6013Z" fill="#8F5C45"/>
<path d="M12.8287 12.3344L12.2208 11.1946L12.1489 10.7855L12.2742 10.4122L12.0422 10.2169V9.59387L12.1489 9.52214L11.9876 9.11299L12.1489 8.43683V7.68893L11.9876 7.26119L12.2022 6.7099L12.0596 6.30075V3.95079L11.9876 3.34504L12.0596 2.97175V2.33146L12.1315 2.01131L12.0782 1.83331V1.33515L12.1675 1.08541L12.2395 0.551391L12.4901 0.373384L13.3832 0.479657L13.5978 1.22755L13.7231 1.33382V1.7257L13.6698 1.97545L13.7418 2.90135L13.5992 3.07935L13.7245 3.56024L13.4205 3.73824L13.6885 3.96939L13.7245 4.16466L13.6885 4.39581L13.5098 4.76909L13.7418 5.33898L13.5992 5.83713L13.7418 5.99787V7.33292L13.4379 7.6172L13.7418 8.20436L13.6698 9.00539L13.7418 9.73468V10.464L13.8311 10.6951L14.2417 11.3181L14.7948 11.888L15.4373 12.2972H16.7583L17.3302 12.1909L18.4379 11.3367L18.6165 10.7855L18.8671 10.4122V8.88185L19.0458 8.5431L18.9205 8.24022L18.8311 8.13395L18.9378 7.68893L18.8311 7.22665L19.0271 6.58636L18.8485 6.15861L18.8845 6.03374V5.17957L18.8125 4.34267L18.8658 3.89765V3.02622L18.9724 2.6702L18.8831 1.8519V1.15715L19.3124 0.783863L19.223 0.445118L19.563 0.302979L20.1348 0.427849L20.3667 0.730726L20.5454 1.15847V1.47862L20.4734 1.69249V2.44039L20.5454 3.34769V4.00658L20.492 4.52333L20.5454 5.18223V7.83373L20.4734 8.47402L20.5267 8.7769L20.3667 9.4172L20.5454 9.77321L20.5094 10.1465L20.2055 11.1083L20.1695 11.536L20.0802 11.7499L19.563 12.337L19.4017 12.6399L18.062 13.4768L17.4902 13.708L16.7224 13.8328H15.8652L15.2401 13.7611L14.4723 13.5658L13.7405 13.2271L13.1686 12.7993L12.8287 12.337V12.3344Z" fill="#8F5C45"/>
<path d="M24.5417 1.31782L23.9885 0.979074L24.0605 0.712064L24.2031 0.587193L24.667 0.391917L25.2748 0.285645H26.5785L27.7755 0.410515L28.6326 0.304242L28.8646 0.340109L29.5071 0.588522L29.6857 0.980403L29.1685 1.31915L28.8286 1.44402L29.0792 1.76416L28.5073 1.88903L28.0075 2.12018L27.7755 2.35132L27.5969 2.67147L27.5249 3.29449L27.6675 3.72224L27.4356 4.23766L27.6502 4.93242L27.5782 5.2353L27.6142 5.3243V5.75205L27.4716 6.1798L27.6502 6.60754L27.5076 6.99942L27.6689 7.69418L27.5436 7.92533L27.293 8.06747L27.5782 8.28134L27.6675 8.51248L27.5782 8.90436L27.6502 9.54466V10.4347L27.5609 10.9687L27.9008 11.876L28.1154 12.0368L28.562 12.0726L28.9725 12.1616L29.2765 12.3038L29.5617 12.588L29.6337 13.0158L29.5977 13.1221L29.2578 13.5498L28.7753 13.6029H27.9715L27.3463 13.6747H24.9349L24.595 13.6215L24.3097 13.4967L24.0951 13.2655L24.1485 12.9095L24.0951 12.5176L24.1485 12.4459L24.5057 12.2679L25.4348 12.0726L25.7387 11.7166L25.8987 11.4496L26.1133 10.8983V10.1145L26.1666 9.8834L26.0066 9.75853V6.84002L26.0786 6.09212L26.0066 5.86098V3.97464L25.9533 3.69036L26.0786 3.24534V2.55058L25.8107 2.19457L25.1855 1.82129L24.3097 1.53701L24.5417 1.32313V1.31782Z" fill="#8F5C45"/>
<path d="M33.1515 12.8682L33.2941 12.5295V12.2093L33.5447 11.8706V11.2662L33.7406 10.9274L33.8299 10.6604V10.2685L34.0259 9.82351V9.5565L34.0979 9.21775L34.3298 8.77274V8.57746L34.4365 8.07931L34.5977 7.95444L34.6697 7.24241L34.9203 6.83326V6.38824L35.1883 5.58721L35.5455 4.89378L35.4389 4.87651L35.4922 4.44876L35.7601 3.96788L35.6881 3.665L35.8494 3.30899L35.9214 3.23726L36.0467 2.91711L35.9214 2.72183L36.0827 2.08154L36.3146 1.53025L36.5293 1.33497V0.907225L36.6719 0.658813L36.9571 0.516673L37.3504 0.4104H37.6543L37.9049 0.463537L38.3155 0.69468L38.3514 1.12243L38.7447 1.70958L39.0486 3.27578L39.4058 4.07681L39.5125 4.96684L39.6724 5.28699L40.1363 6.71105V7.01392L40.0643 7.24507L40.279 7.44034L40.5642 7.99163V8.59739L40.5109 8.8644L40.8508 9.29214L41.1547 10.5913L41.1374 10.8756L41.2627 11.0005L41.4413 11.3034L41.5133 11.6766L41.4773 12.1044L41.6373 12.3887L41.7093 12.6198L41.6199 13.2787L41.2627 13.5816L40.9948 13.5988L40.4762 13.4926L40.1363 12.9772V12.746L39.4218 11.2688L39.1712 10.9845L38.7247 10.7707H37.5103L35.9921 10.9314L35.7068 11.1094L35.0816 11.8932L35.1709 12.0712L34.6884 13.2641L34.3671 13.478L34.0099 13.5138L33.4567 13.4248L33.2248 13.2296L33.1528 12.8735L33.1515 12.8682ZM36.5266 9.14868H38.2941L38.5447 9.07694L38.8487 8.77407L38.7593 8.13377L38.3848 6.44271L38.0275 5.3388L37.7423 4.71578L37.617 4.6095L37.1171 4.78751L36.9025 5.07179L36.9918 5.21393L36.8492 5.62308L36.7959 5.53408L36.6346 6.42411L36.5279 6.63798L36.188 6.95813L36.4026 7.10027L36.3133 7.54529L36.1707 7.93717V8.36492L36.332 8.54292L36.0814 8.72093L36.0987 8.97067L36.5279 9.14868H36.5266Z" fill="#8F5C45"/>
<path d="M0.929048 32.2538L0.714437 31.773V31.3279L0.999697 31.0782L0.427844 30.9892L0.338534 30.4193L0.285214 30.2772L0.178575 29.779L0.106593 28.8531L-4.57764e-05 28.355V26.539L0.214566 25.8443L0.142584 25.471L0.303876 24.5451L0.446506 24.1532L0.786418 23.7613L0.643788 23.6192L0.76909 23.1742L0.965039 22.9603L1.03702 22.6401L1.64486 22.0171L1.77016 21.786L2.14474 21.341L2.82323 20.9491L3.35909 20.9132L3.43107 20.8242L3.64568 20.6462L4.09223 20.5745H5.50254L5.71715 20.7352L7.02081 21.1085L7.48469 21.3755L8.32448 22.4608L8.19918 23.0666L8.02056 23.2804L7.80594 23.4053H7.48469L6.9315 23.121L6.07439 22.3027L5.21728 21.9108H4.53879L3.98559 22.053L3.03917 22.6043L2.64594 22.9244L2.73525 23.1197L2.62861 23.3508L2.16473 23.9911L2.11141 24.5079L1.91546 24.7576L1.71951 24.8639L1.8808 25.3262L1.70218 25.6463V25.9492L1.7555 26.1989L1.70218 26.5191L1.57688 26.733L1.71951 27.178L1.6302 27.5513L1.70218 28.3523L1.6302 28.7973L1.79149 28.8691L1.95145 30.3994L2.1474 30.6664L2.29003 31.0583L2.32602 31.397L2.64727 31.575L2.82589 31.8248L3.02184 32.198L3.25378 32.4478L3.48572 32.5899L4.09357 32.7679L4.80805 32.8397L5.5052 32.7865L6.07706 32.6271L6.38098 32.4318L7.2021 31.7198L7.57667 31.5949L8.11253 31.6481L8.21917 31.7012L8.43378 32.6444L7.79128 33.3378L7.29141 33.747L6.79154 33.9967L6.20236 34.192L5.29192 34.4231H4.54145L3.70167 34.3341L2.96986 34.1203L2.50598 33.8891L1.93412 33.4614L1.38093 32.9101L0.93438 32.2512L0.929048 32.2538Z" fill="#8F5C45"/>
<path d="M12.5713 21.8947L12.0181 21.556L12.0901 21.289L12.2327 21.1641L12.6966 20.9688L13.3045 20.8625H14.6081L15.8052 20.9874L16.6623 20.8811L16.8942 20.917L17.5367 21.1668L17.7153 21.5586L17.1981 21.8974L16.8582 22.0222L17.1088 22.3424L16.537 22.4673L16.0371 22.6984L15.8052 22.9296L15.6265 23.2497L15.5546 23.8727L15.6972 24.3005L15.4652 24.8159L15.6799 25.5107L15.6079 25.8135L15.6439 25.9025V26.3303L15.5012 26.758L15.6799 27.1858L15.5372 27.5777L15.6985 28.2724L15.5732 28.5036L15.3226 28.6457L15.6079 28.8596L15.6972 29.0907L15.6079 29.4826L15.6799 30.1229V31.0129L15.5905 31.5469L15.9305 32.4542L16.1451 32.615L16.5916 32.6509L17.0022 32.7399L17.3061 32.882L17.5914 33.1663L17.6633 33.594L17.6274 33.7003L17.2874 34.128L16.8049 34.1812H16.0011L15.3759 34.2529H12.9646L12.6246 34.1998L12.3394 34.0749L12.1248 33.8438L12.1781 33.4878L12.1248 33.0959L12.1781 33.0241L12.5353 32.8461L13.4644 32.6509L13.7684 32.2948L13.9283 32.0278L14.1429 31.4765V30.6928L14.1962 30.4616L14.0349 30.3368V27.4182L14.1069 26.6704L14.0349 26.4392V24.5529L13.9816 24.2686L14.1069 23.8236V23.1288L13.839 22.7728L13.2138 22.3995L12.3381 22.1152L12.57 21.9014L12.5713 21.8947Z" fill="#8F5C45"/>
<path d="M21.208 32.2538L20.9934 31.773V31.3279L21.2786 31.0782L20.7068 30.9892L20.6175 30.4193L20.5642 30.2772L20.4575 29.779L20.3855 28.8531L20.2789 28.355V26.539L20.4935 25.8443L20.4215 25.471L20.5828 24.5451L20.7255 24.1532L21.0654 23.7613L20.9227 23.6192L21.048 23.1742L21.244 22.9603L21.316 22.6401L21.9238 22.0171L22.0491 21.786L22.4237 21.341L23.1022 20.9491L23.638 20.9132L23.71 20.8242L23.9246 20.6462L24.3712 20.5745H25.7815L25.9961 20.7352L27.2998 21.1085L27.7636 21.3755L28.6034 22.4608L28.4781 23.0666L28.2995 23.2804L28.0849 23.4053H27.7636L27.2104 23.121L26.3533 22.3027L25.4962 21.9108H24.8177L24.2645 22.053L23.3181 22.6043L22.9249 22.9244L23.0142 23.1197L22.9076 23.3508L22.4437 23.9911L22.3904 24.5079L22.1944 24.7576L21.9985 24.8639L22.1597 25.3262L21.9811 25.6463V25.9492L22.0344 26.1989L21.9811 26.5191L21.8558 26.733L21.9985 27.178L21.9091 27.5513L21.9811 28.3523L21.9091 28.7973L22.0704 28.8691L22.2304 30.3994L22.4263 30.6664L22.569 31.0583L22.605 31.397L22.9262 31.575L23.1048 31.8248L23.3008 32.198L23.5327 32.4478L23.7647 32.5899L24.3725 32.7679L25.087 32.8397L25.7841 32.7865L26.356 32.6271L26.6599 32.4318L27.481 31.7198L27.8556 31.5949L28.3915 31.6481L28.4981 31.7012L28.7127 32.6444L28.0702 33.3378L27.5704 33.747L27.0705 33.9967L26.4813 34.192L25.5709 34.4231H24.8204L23.9806 34.3341L23.2488 34.1203L22.7849 33.8891L22.2131 33.4614L21.6599 32.9101L21.2133 32.2512L21.208 32.2538Z" fill="#8F5C45"/>
<path d="M32.0332 33.7668L31.9079 33.3935V32.8595L32.0505 32.3255L31.9079 32.0585V30.0831L32.0505 29.4428L31.9612 29.1931L31.9438 29.229L31.8905 28.7839L32.0865 27.591L31.8905 27.1819L31.9438 26.5761V25.4722L31.9079 25.3301L31.9438 24.7788L31.8719 24.4055V22.2694L31.9785 21.8961L32.0318 21.4684L32.4424 21.1296L33.8354 20.9516H34.4245L34.5498 20.9158L35.211 21.0579H35.5323L35.8895 20.9689H36.9612L37.7117 21.0938L38.1582 21.2545L38.5875 21.6105L39.0513 21.7713L39.266 22.0741L39.4086 22.4302L39.3553 22.5019L39.7298 22.733L39.7832 23.2485L39.9791 23.6403V24.0681L39.9258 24.3178L40.0871 24.549L39.9978 25.2251L39.7298 25.973L39.5872 26.062L39.3913 26.4008L39.4273 26.596L39.178 27.1832L39.3379 27.6641L39.1953 27.878L39.6059 28.0918L40.0164 28.5727V28.9115L40.3204 29.2502V30.0685L40.4457 30.2824L40.2844 31.0475L40.4457 31.2428L40.0884 32.1501L40.1057 32.3454L39.9098 32.7187L39.3739 33.2886L38.9807 33.5729L38.4635 33.8399L37.5344 34.1069L36.7666 34.2317H34.6405L34.1046 34.1786H32.569L32.1585 33.9475L32.0332 33.7695V33.7668ZM34.5872 26.6479H35.2297L35.9975 26.5057H37.1052L37.4984 26.2573L38.2489 25.4921L38.4275 25.2437L38.2675 24.8877L38.3395 24.5144V23.9273L37.7504 22.753L37.5904 22.6467L36.5013 22.4328H35.6082L35.2337 22.5045H34.3046L34.1086 22.5763L33.3408 23.6616L33.5914 24.0893V25.1747L33.4834 25.5838L33.5914 25.9398L34.1273 26.4021L34.5912 26.6518L34.5872 26.6479ZM33.5874 32.3441L33.9273 32.6828H37.3918L37.749 32.5938L37.9996 32.3095L38.8394 31.7224L38.6248 31.5085L38.8394 31.0994V30.1389L38.7141 29.7656L38.6608 29.2316L38.4288 28.8583L37.929 28.5023L37.1425 28.1822L36.7679 28.129H34.5538L33.982 28.2539L33.6967 28.5382L33.6434 29.1612L33.5714 29.0722L33.6434 30.1934L33.5008 30.5321L33.6434 30.9944V32.2046L33.5901 32.3467L33.5874 32.3441Z" fill="#8F5C45"/>
<path d="M49.4219 33.6073L49.5819 33.323L49.3499 32.9843V28.8729L49.4219 28.4106L49.3499 27.9483L49.4219 27.4501L49.3499 27.3253V25.7418L49.5819 25.6887L49.4032 25.3858L49.3499 24.9939L49.4032 24.691L49.5992 24.602L49.3486 24.4426L49.4206 23.8913L49.3486 23.4463V23.073L49.4206 22.7343L49.3486 22.4673V22.0581L49.4379 21.5068L49.5099 21.3647L49.7058 21.2226L50.259 21.0618L51.0801 20.9197L51.8119 21.0804H52.1692L52.8663 20.9383L53.3662 21.0804L54.2953 21.1694L54.9032 21.3647L55.4204 21.6317L55.9735 22.0236L56.6347 22.6997L57.0279 23.251L57.0453 23.4463L56.9386 23.5712L57.1346 23.7133L57.4745 24.2287V24.4785L57.4572 24.6392L57.6171 25.0311L57.8131 26.0991L57.7771 26.2944L57.5811 26.5442L57.8664 27.2031L57.8304 27.4528L57.6704 27.7915L57.7957 28.3787L57.7064 28.6457L57.8317 28.8941L57.6531 30.087L57.4212 30.4789L57.4745 30.6742L57.4572 30.8695L57.1532 31.2255L57.0466 31.9016L56.2601 32.8979L56.0455 33.0401L55.563 33.2181L55.2777 33.432L54.8138 33.877L54.1713 34.0723L52.885 34.2675H50.6882L50.0631 34.1785L49.6165 33.9647L49.4206 33.6086L49.4219 33.6073ZM52.6371 32.611L54.298 32.433V32.2736L55.0298 31.5443L55.2977 31.3663L55.655 30.726L55.8162 30.1747L56.0122 29.836L56.1015 29.1771L56.2268 28.643V26.5242L56.1015 26.329V25.7232L55.6016 24.4958L55.5297 23.9086L54.7619 23.1607L54.3686 22.8406L53.3502 22.5735L52.7784 22.5018H51.8146L51.4934 22.5549L51.1361 23L51.0108 23.4277V25.8667L50.7962 26.418L51.0108 26.8457V27.13L50.9575 27.5033L51.0108 28.0546L51.2068 28.3043L50.8669 28.5354L51.0095 28.8197V30.2438L50.9028 30.4577L51.0095 30.6888L50.9562 31.3836L51.0455 31.8817L51.3494 32.611H52.6357H52.6371Z" fill="#8F5C45"/>
<path d="M60.7484 33.4468L60.6591 33.019V31.951L60.5871 31.6481L60.7297 31.2921L60.6577 31.0437L60.7297 30.4034L60.6764 29.9756L60.7297 29.4243L60.6577 29.2463L60.7297 28.1252V26.5417L60.6764 26.1684L60.7124 25.7407L60.8204 25.2957L60.6591 25.0818V24.2449L60.731 23.7295L60.6591 23.4266V22.3944L60.7657 21.3795L61.1056 21.0408L61.4269 20.8813H67.5706L67.7492 20.9704L68.5704 21.2015L68.8556 21.6824L68.641 21.9853L68.2838 22.1633L66.159 22.3585H64.6407L63.9435 22.2695L63.533 22.3585L62.9971 22.5538L62.5679 22.8208L62.3173 23.1051V23.853L62.0134 24.209L62.3173 24.5119V25.01L62.1747 25.2585L62.3893 25.4365L62.5146 26.0954L63.1398 26.3796L63.6929 26.4328H67.6759L67.9972 26.4859L68.1571 26.5749L68.4077 26.8419L68.5864 27.3587L68.4077 27.6084L68.1398 27.7506L67.6932 27.8927L67.264 27.9458L66.7815 27.821H63.9062L63.7996 27.7147L63.389 27.91L62.8172 27.9817L62.6559 28.1597L62.4066 28.5689L62.3173 28.9421L62.3893 29.4044L62.1747 29.8853L62.3173 30.3835V30.5973L61.9774 30.6691L62.352 31.15V31.5777L62.28 31.773L62.6199 32.3429L63.1558 32.841L63.4597 32.9659L64.1742 32.841H65.5138L66.3536 32.7693L66.7108 32.841H68.2291L68.4784 32.8942L68.7996 33.1784L68.7277 33.4986V33.9609L68.2984 34.1747L67.512 34.2637H63.8862L63.5117 34.1747L63.3157 34.2637H61.6188L61.1016 33.8546L60.727 33.6939L60.7444 33.4441L60.7484 33.4468Z" fill="#8F5C45"/>
<path d="M0.0532738 54.0183L-4.57764e-05 53.6623L0.195904 53.2L0.0172831 52.7377L0.142584 52.0616L0.035945 51.8118L0.142584 51.2964L-4.57764e-05 50.7451L0.0532738 50.1938V49.2865L-4.57764e-05 48.7166L0.0719357 48.2544L0.0186161 47.7203L0.0719357 47.4361L-4.57764e-05 46.7772L0.178575 46.6178L-4.57764e-05 46.2617V43.5744L0.0719357 42.8809L0.286547 42.5608L0.0186161 42.0985L0.179908 41.6894L0.537149 41.4396L0.787751 41.3865L1.28762 41.4223L1.69818 41.6894L2.07275 42.4372L2.394 43.2383V43.8254L2.80457 44.3422L2.96452 44.8045L3.32177 46.0505L4.01892 47.7416L4.32284 48.0976L4.42948 48.1693L4.64409 48.0976L4.82271 47.8306L5.30525 46.8516L5.82245 45.3744L6.16237 44.2173L6.48362 43.755L6.64491 43.6302L6.59159 43.1851L6.62758 43.043L7.00215 42.5276L6.91284 42.1888L7.09146 41.9046L7.48469 41.6907L7.71663 41.6375L8.48444 41.6907L8.57375 41.6375L8.895 42.0653V42.3496L8.7697 42.5993L9.0203 43.2223L8.93099 43.7922L8.895 43.7205V44.6278L9.00163 45.1087L8.859 45.5364L8.96564 45.6082V46.1953L8.859 46.5341L9.01896 46.8901L8.859 47.3524L9.00163 47.7084V50.4489L8.895 51.1782L9.0203 51.4452L8.94832 52.1745L9.00163 52.7444L8.92965 52.9941V53.7951L8.76836 53.9546L8.37513 54.0077L8.42845 54.5776L8.14319 54.5949L7.71397 54.4168L7.48203 54.114V53.2425L7.37539 52.7444L7.50069 52.1214L7.35806 51.4625V49.8604L7.57267 49.3622L7.55534 49.1484L7.35939 48.8641L7.43137 48.2942L7.37805 48.1162L7.03814 47.707L6.28767 48.0458V48.2597L6.07306 48.9544L5.96642 49.1497L5.82379 49.8086L5.2706 51.0015L5.07465 51.1622L4.78939 51.2685L4.57478 51.2858L3.91361 51.1795L3.52038 50.7704L3.25245 50.2363L3.09116 49.7382L3.23379 49.418L2.80457 48.973L2.51931 48.1893L2.25137 47.7974L2.07275 47.6725L1.96611 47.4414L1.77016 47.8332L1.53822 48.172L1.44891 48.439L1.66353 48.6701L1.6462 48.8296L1.30628 49.5416L1.59154 49.7023V51.6073L1.78749 51.7321L1.43025 52.124L1.59021 52.5159V53.4777L1.44758 54.2787L1.19831 54.474L0.8584 54.5988L0.411848 54.474L0.143917 54.2242L0.0546068 54.0289L0.0532738 54.0183Z" fill="#8F5C45"/>
<path d="M11.6543 53.9295L11.7969 53.5907V53.2706L12.0475 52.9318V52.3274L12.2435 51.9887L12.3328 51.7217V51.3298L12.5287 50.8848V50.6177L12.6007 50.279L12.8327 49.834V49.6387L12.9393 49.1406L13.1006 49.0157L13.1726 48.3037L13.4232 47.8945V47.4495L13.6911 46.6485L14.0484 45.9537L13.9417 45.9364L13.995 45.5087L14.263 45.0278L14.191 44.7249L14.3523 44.3689L14.4243 44.2972L14.5496 43.977L14.4243 43.7818L14.5855 43.1415L14.8175 42.5902L15.0321 42.3949V41.9671L15.1747 41.7174L15.46 41.5753L15.8532 41.469H16.1571L16.4077 41.5221L16.8183 41.7533L16.8543 42.181L17.2475 42.7682L17.5515 44.3344L17.9087 45.1354L18.0153 46.0254L18.1753 46.3456L18.6392 47.7696V48.0725L18.5672 48.3037L18.7818 48.4989L19.0671 49.0502V49.656L19.0137 49.923L19.3537 50.3507L19.6576 51.6499L19.6402 51.9342L19.7655 52.0591L19.9442 52.362L20.0162 52.7352L19.9802 53.163L20.1401 53.4473L20.2121 53.6784L20.1228 54.3373L19.7655 54.6402L19.4976 54.6574L18.9791 54.5512L18.6392 54.0357V53.8046L17.9247 52.3274L17.6741 52.0431L17.2275 51.8293H16.0132L14.4949 51.99L14.2096 52.168L13.5845 52.9518L13.6738 53.1298L13.1912 54.3227L12.87 54.5366L12.5128 54.5724L11.9596 54.4834L11.7276 54.2881L11.6556 53.9321L11.6543 53.9295ZM15.0294 50.2099H16.797L17.0476 50.1382L17.3515 49.8353L17.2622 49.195L16.8876 47.504L16.5304 46.4L16.2451 45.777L16.1198 45.6707L15.62 45.8488L15.4053 46.133L15.4946 46.2752L15.352 46.6843L15.2987 46.5953L15.1374 47.4854L15.0308 47.6992L14.6909 48.0194L14.9055 48.1615L14.8162 48.6065L14.6735 48.9984V49.4262L14.8348 49.6042L14.5842 49.7822L14.6015 50.0319L15.0308 50.2099H15.0294Z" fill="#8F5C45"/>
<path d="M25.0643 53.8232L24.9217 53.6638V52.257L25.1003 51.6513L24.9937 51.5795V50.2976L25.1003 49.9775V48.9812L25.047 48.8032L25.011 48.3754L25.1536 47.9835L24.9577 47.4854L25.0297 46.97L24.9763 46.8451V44.5669L25.1376 44.1391L24.887 43.8721L24.8337 43.285L24.5831 43.1242L24.0832 42.9289L23.3328 42.7509H22.0464L22.0638 42.5557L21.3853 42.1638L21.296 42.1465L21.332 41.8078L21.5639 41.6125L22.5823 41.3282H24.2072L25.4749 41.4345L25.7961 41.3628H27.3677L28.0995 41.291L28.9926 41.4518H29.5992L30.0817 41.6829L30.135 41.8436L29.9391 42.1997L29.7071 42.2887L29.9217 42.6619L29.5285 42.7868H28.4928L27.8316 42.8399L27.2424 42.9821L26.7785 43.2491L26.6359 43.4444L26.4573 43.9957V44.3517L26.5293 44.4407V49.5484L26.3866 50.0997L26.5293 50.2777V51.1491L26.4573 51.5769L26.2427 51.5238L26.5279 52.1109L26.456 52.7871L26.5093 53.3928L26.3307 54.1766L26.1694 54.4609L25.8295 54.5857L25.5442 54.5685L25.0976 54.3187L25.0617 53.8206L25.0643 53.8232Z" fill="#8F5C45"/>
<path d="M32.9792 53.9295L32.8899 53.5018V52.4337L32.8179 52.1308L32.9606 51.7748L32.8886 51.5264L32.9606 50.8861L32.9072 50.4584L32.9606 49.9071L32.8886 49.7291L32.9606 48.6079V47.0244L32.9072 46.6512L32.9432 46.2234L33.0512 45.7784L32.8899 45.5645V44.7276L32.9619 44.2122L32.8899 43.9093V42.8771L32.9966 41.8622L33.3365 41.5235L33.6577 41.3641H39.8015L39.9801 41.4531L40.8012 41.6842L41.0865 42.1651L40.8719 42.468L40.5146 42.646L38.3898 42.8413H36.8716L36.1744 42.7523L35.7638 42.8413L35.228 43.0366L34.7988 43.3036L34.5482 43.5878V44.3357L34.2442 44.6917L34.5482 44.9946V45.4928L34.4055 45.7412L34.6201 45.9192L34.7454 46.5781L35.3706 46.8624L35.9238 46.9155H39.9068L40.228 46.9686L40.388 47.0576L40.6386 47.3247L40.8172 47.8414L40.6386 48.0911L40.3707 48.2333L39.9241 48.3754L39.4949 48.4286L39.0123 48.3037H36.1371L36.0304 48.1974L35.6199 48.3927L35.048 48.4644L34.8867 48.6424L34.6375 49.0516L34.5482 49.4249L34.6201 49.8872L34.4055 50.368L34.5482 50.8662V51.0801L34.2082 51.1518L34.5828 51.6327V52.0604L34.5108 52.2557L34.8508 52.8256L35.3866 53.3238L35.6905 53.4486L36.405 53.3238H37.7447L38.5845 53.252L38.9417 53.3238H40.46L40.7092 53.3769L41.0305 53.6612L40.9585 53.9813V54.4436L40.5293 54.6575L39.7428 54.7465H36.1171L35.7425 54.6575L35.5466 54.7465H33.8497L33.3325 54.3373L32.9579 54.1766L32.9752 53.9269L32.9792 53.9295ZM36.0331 39.3529L36.1398 38.872L36.3184 38.6222L36.7116 38.3194L37.3368 37.9461L37.4088 37.982L37.6234 37.4838L38.0699 37.4307L38.3738 37.5024L38.6244 37.6804L38.7311 38.1082L38.7484 38.322L38.4978 38.6249L37.7113 39.3728L37.3181 39.5867L36.7649 39.7819L36.2651 39.6757L36.0331 39.3555V39.3529Z" fill="#8F5C45"/>
<path d="M44.218 54.1073L44.1646 53.8935L44.0047 53.5906V52.5411L44.0767 51.7401L44.0047 51.509V46.6138L44.058 46.2405L44.0047 45.5643L44.058 45.2973V43.1612L44.0047 42.877L44.1646 42.2712L44.0927 42.2539L44.1286 41.8089L44.4859 41.4702L45.0391 41.2749H47.9143L48.4502 41.3108L49.1287 41.417L49.7352 41.6309L50.4497 42.0401L50.7896 42.3071L51.2721 42.8225L51.5401 43.3207L51.7893 44.1044L51.7174 44.3714L51.824 45.1897V45.7955L51.5387 46.4012L51.5214 46.5792L51.3428 47.0774L50.8789 47.5397L50.7723 47.7708L50.0751 48.4297V49.4978L50.3604 49.6758L50.9496 50.6017L51.3068 51.331L51.4134 51.865L51.2521 52.0071L51.4134 52.132L52.0199 52.7723L52.0733 52.9317V53.1987L52.4305 53.661V54.1764L52.3585 54.3013L52.3412 54.4966L52.0013 54.6387L51.4827 54.6028L51.0535 54.3186L50.8216 54.0343L50.411 53.216L50.1431 52.771L50.0898 52.5757L50.1618 52.3977L49.6619 51.7919L48.7328 49.976L48.6262 49.353L47.8583 48.8907L46.4827 48.5347L45.6789 49.353L45.7322 50.0119L45.6962 50.7066V51.5608L45.6069 52.3977L45.6789 52.5039V53.8204L45.2857 54.2123L44.9111 54.3544L44.6605 54.3903L44.3206 54.284L44.214 54.106L44.218 54.1073ZM46.0575 46.8994L46.6107 47.0057H48.7901L49.9151 46.5606L49.8978 46.2936L50.1658 45.8313L50.2911 45.3691V44.9413L50.2377 44.5494L49.9525 43.6235L49.1314 43.1081L49.078 42.9474L48.3462 42.5914H46.7213L46.4534 42.5382L45.9895 42.8942L45.8109 42.9115L45.9362 43.2502L45.7935 43.5704L45.7402 44.4777L45.5256 44.9054L45.7402 45.1725L45.6336 45.7596L45.7402 46.2578L45.6869 46.5248L45.7589 46.6496L46.0628 46.8994H46.0575Z" fill="#8F5C45"/>
<path d="M56.4082 42.3789L55.855 42.0401L55.927 41.7731L56.0696 41.6482L56.5335 41.453L57.1413 41.3467H58.445L59.642 41.4716L60.4991 41.3653L60.7311 41.4011L61.3736 41.6509L61.5522 42.0428L61.035 42.3815L60.6951 42.5064L60.9457 42.8265L60.3738 42.9514L59.874 43.1825L59.642 43.4137L59.4634 43.7338L59.3914 44.3569L59.534 44.7846L59.3021 45.3L59.5167 45.9948L59.4447 46.2977L59.4807 46.3867V46.8144L59.3381 47.2422L59.5167 47.6699L59.3741 48.0618L59.5354 48.7565L59.4101 48.9877L59.1595 49.1298L59.4447 49.3437L59.534 49.5748L59.4447 49.9667L59.5167 50.607V51.4971L59.4274 52.0311L59.7673 52.9384L59.9819 53.0991L60.4285 53.135L60.839 53.224L61.143 53.3661L61.4282 53.6504L61.5002 54.0782L61.4642 54.1844L61.1243 54.6122L60.6418 54.6653H59.838L59.2128 54.737H56.8014L56.4615 54.6839L56.1762 54.559L55.9616 54.3279L56.0149 53.9719L55.9616 53.58L56.0149 53.5083L56.3722 53.3303L57.3013 53.135L57.6052 52.779L57.7652 52.512L57.9798 51.9607V51.1769L58.0331 50.9458L57.8731 50.8209V47.9024L57.9451 47.1545L57.8731 46.9233V45.037L57.8198 44.7527L57.9451 44.3077V43.6129L57.6772 43.2569L57.052 42.8837L56.1762 42.5994L56.4082 42.3855V42.3789Z" fill="#8F5C45"/>
<path d="M65.0192 53.9295L65.1618 53.5907V53.2706L65.4124 52.9318V52.3274L65.6084 51.9887L65.6977 51.7217V51.3298L65.8936 50.8848V50.6177L65.9656 50.279L66.1975 49.834V49.6387L66.3042 49.1406L66.4655 49.0157L66.5375 48.3037L66.7881 47.8945V47.4495L67.056 46.6485L67.4132 45.9537L67.3066 45.9364L67.3599 45.5087L67.6278 45.0278L67.5559 44.7249L67.7171 44.3689L67.7891 44.2972L67.9144 43.977L67.7891 43.7818L67.9504 43.1415L68.1824 42.5902L68.397 42.3949V41.9671L68.5396 41.7174L68.8249 41.5753L69.2181 41.469H69.522L69.7726 41.5221L70.1832 41.7533L70.2192 42.181L70.6124 42.7682L70.9163 44.3344L71.2736 45.1354L71.3802 46.0254L71.5402 46.3456L72.004 47.7696V48.0725L71.9321 48.3037L72.1467 48.4989L72.4319 49.0502V49.656L72.3786 49.923L72.7185 50.3507L73.0224 51.6499L73.0051 51.9342L73.1304 52.0591L73.309 52.362L73.381 52.7352L73.345 53.163L73.505 53.4473L73.577 53.6784L73.4877 54.3373L73.1304 54.6402L72.8625 54.6574L72.344 54.5512L72.004 54.0357V53.8046L71.2896 52.3274L71.039 52.0431L70.5924 51.8293H69.378L67.8598 51.99L67.5745 52.168L66.9493 52.9518L67.0387 53.1298L66.5561 54.3227L66.2349 54.5366L65.8776 54.5724L65.3244 54.4834L65.0925 54.2881L65.0205 53.9321L65.0192 53.9295ZM68.3943 50.2099H70.1618L70.4124 50.1382L70.7164 49.8353L70.6271 49.195L70.2525 47.504L69.8952 46.4L69.61 45.777L69.4847 45.6707L68.9848 45.8488L68.7702 46.133L68.8595 46.2752L68.7169 46.6843L68.6636 46.5953L68.5023 47.4854L68.3956 47.6992L68.0557 48.0194L68.2703 48.1615L68.181 48.6065L68.0384 48.9984V49.4262L68.1997 49.6042L67.9491 49.7822L67.9664 50.0319L68.3956 50.2099H68.3943Z" fill="#8F5C45"/>
<path d="M75.9764 49.4976L76.0657 49.1589L76.4763 48.7139H83.0493L83.5491 48.8387L83.7638 49.1416L83.8171 49.4618L83.7451 49.7288L83.2812 50.0317L82.9773 50.1379L82.5481 50.1738L81.351 49.9426L80.6192 49.8895L80.03 49.9958H77.4227L76.459 49.8536L76.2977 49.8895L75.9764 49.4976Z" fill="#8F5C45"/>
<path d="M0.0371504 74.4547L0.00115967 74.1518L0.107799 74.0628L0.161118 73.8675L0.00115967 73.3694L0.0544793 72.7636L0.00115967 72.1233V71.3581L0.161118 70.7351L0.00115967 70.2901L0.14379 69.8092L0.0371504 69.4173V69.0786L0.287753 68.7226L0.0371504 68.2417V67.3158L0.2331 67.0315L0.00115967 66.4271L0.215771 65.9821L0.00115967 65.5198L0.17978 65.181L0.215771 64.9672L0.126461 64.8609L0.0198215 64.4876L0.162451 64.1489L0.0198215 63.7929V62.7075L0.145123 62.4578L0.591674 62.1908L1.00224 61.8521H4.46668L4.7706 61.9238H5.5384L6.37818 62.1722L6.93137 62.4033L7.37793 62.6531L7.55655 62.9028V63.134L7.96711 63.3292L8.43099 64.1475L8.50297 64.5926L8.41366 64.9313L8.55629 65.1983L8.60961 65.5543L8.395 66.4085V67.3875L8.2697 67.7794L8.01909 68.1182L7.58987 68.4914L7.41125 68.6163L6.87539 69.1145L6.48216 69.2752L5.73168 69.4891L4.65996 69.6139H2.4272L1.85535 69.792L1.67673 71.0021L1.71272 71.1801L1.6594 72.3731L1.74871 72.8885L1.67673 73.5115L1.74871 74.0814L1.73138 74.2767L1.60608 74.6686L1.44612 74.8824L1.12487 75.0777L0.463707 75.0246L0.249096 74.7934L0.0344844 74.4547H0.0371504ZM2.37655 68.0823H4.30538L5.37711 67.9229L6.0556 67.6731L6.55547 67.2454L6.68077 67.0315L6.85939 66.3554L7.03801 65.9821L6.87672 65.2873L6.80474 64.7002L6.37552 63.9709L5.85698 63.757L5.07052 63.5617L3.92681 63.4023H2.58716L2.26591 63.5272L1.94466 63.8473L1.83802 64.0612L1.71272 64.6842V65.3604L1.76604 65.7164L1.2835 66.0724L1.73005 66.2331V66.536L1.51544 67.0514L2.01531 67.8352L2.37255 68.0836L2.37655 68.0823Z" fill="#8F5C45"/>
<path d="M11.6393 74.6315L11.586 74.4176L11.426 74.1148V73.0653L11.498 72.2643L11.426 72.0331V67.1379L11.4793 66.7647L11.426 66.0885L11.4793 65.8215V63.6854L11.426 63.4011L11.586 62.7954L11.514 62.7781L11.55 62.3331L11.9072 61.9943L12.4604 61.7991H15.3357L15.8715 61.8349L16.55 61.9412L17.1565 62.1551L17.871 62.5642L18.2109 62.8312L18.6935 63.3467L18.9614 63.8448L19.2107 64.6286L19.1387 64.8956L19.2453 65.7139V66.3196L18.9601 66.9254L18.9427 67.1034L18.7641 67.6016L18.3002 68.0639L18.1936 68.295L17.4964 68.9539V70.0219L17.7817 70.1999L18.3709 71.1258L18.7281 71.8551L18.8348 72.3892L18.6735 72.5313L18.8348 72.6562L19.4413 73.2965L19.4946 73.4559V73.7229L19.8518 74.1852V74.7006L19.7799 74.8255L19.7625 75.0207L19.4226 75.1629L18.9041 75.127L18.4749 74.8427L18.2429 74.5584L17.8324 73.7401L17.5644 73.2951L17.5111 73.0999L17.5831 72.9218L17.0832 72.3161L16.1541 70.5002L16.0475 69.8771L15.2797 69.4148L13.904 69.0588L13.1002 69.8771L13.1536 70.536L13.1176 71.2308V72.0849L13.0283 72.9218L13.1002 73.0281V74.3446L12.707 74.7364L12.3324 74.8786L12.0818 74.9145L11.7419 74.8082L11.6353 74.6302L11.6393 74.6315ZM13.4788 67.4236L14.032 67.5298H16.2114L17.3365 67.0848L17.3192 66.8178L17.5871 66.3555L17.7124 65.8932V65.4655L17.6591 65.0736L17.3738 64.1477L16.5527 63.6309L16.4994 63.4715L15.7676 63.1155H14.1426L13.8747 63.0624L13.4108 63.4184L13.2322 63.4357L13.3575 63.7744L13.2149 64.0946L13.1616 65.0019L12.947 65.4296L13.1616 65.6966L13.0549 66.2838L13.1616 66.7819L13.1082 67.0489L13.1802 67.1738L13.4841 67.4236H13.4788Z" fill="#8F5C45"/>
<path d="M23.8295 62.9028L23.2763 62.564L23.3483 62.297L23.4909 62.1722L23.9548 61.9769L24.5627 61.8706H25.8663L27.0633 61.9955L27.9205 61.8892L28.1524 61.9251L28.7949 62.1735L28.9735 62.5654L28.4563 62.9041L28.1164 63.029L28.367 63.3491L27.7952 63.474L27.2953 63.7051L27.0633 63.9363L26.8847 64.2564L26.8127 64.8795L26.9554 65.3072L26.7234 65.8226L26.938 66.5174L26.8661 66.8203L26.9021 66.9093V67.337L26.7594 67.7648L26.938 68.1925L26.7954 68.5844L26.9567 69.2791L26.8314 69.5103L26.5808 69.6524L26.8661 69.8663L26.9554 70.0974L26.8661 70.4893L26.938 71.1296V72.0197L26.8487 72.5537L27.1886 73.461L27.4033 73.6217L27.8498 73.6576L28.2604 73.7466L28.5643 73.8887L28.8496 74.173L28.9215 74.6008L28.8855 74.707L28.5456 75.1348L28.0631 75.1879H27.2593L26.6341 75.2596H24.2227L23.8828 75.2065L23.5976 75.0816L23.383 74.8505L23.4363 74.4945L23.383 74.1026L23.4363 74.0309L23.7935 73.8529L24.7226 73.6576L25.0265 73.3016L25.1865 73.0346L25.4011 72.4833V71.6995L25.4544 71.4684L25.2931 71.3435V68.425L25.3651 67.6771L25.2931 67.4459V65.5596L25.2398 65.2753L25.3651 64.8303V64.1355L25.0972 63.7795L24.472 63.4062L23.5962 63.122L23.8282 62.9081L23.8295 62.9028Z" fill="#8F5C45"/>
<path d="M32.4288 74.5437L32.3754 74.1877L32.5714 73.7254L32.3928 73.2631L32.5181 72.587L32.4114 72.3372L32.5181 71.8218L32.3754 71.2705L32.4288 70.7192V69.8119L32.3754 69.242L32.4474 68.7797L32.3941 68.2457L32.4474 67.9614L32.3754 67.3026L32.5541 67.1431L32.3754 66.7871V64.0998L32.4474 63.4063L32.662 63.0862L32.3941 62.6239L32.5554 62.2147L32.9126 61.965L33.1632 61.9119L33.6631 61.9477L34.0737 62.2147L34.4482 62.9626L34.7695 63.7637V64.3508L35.1801 64.8676L35.34 65.3299L35.6973 66.5759L36.3944 68.267L36.6983 68.623L36.805 68.6947L37.0196 68.623L37.1982 68.356L37.6807 67.3769L38.1979 65.8997L38.5379 64.7427L38.8591 64.2804L39.0204 64.1556L38.9671 63.7105L39.0031 63.5684L39.3776 63.053L39.2883 62.7142L39.4669 62.4299L39.8602 62.2161L40.0921 62.1629L40.8599 62.2161L40.9492 62.1629L41.2705 62.5907V62.875L41.1452 63.1247L41.3958 63.7477L41.3065 64.3176L41.2705 64.2459V65.1532L41.3771 65.6341L41.2345 66.0618L41.3411 66.1335V66.7207L41.2345 67.0595L41.3945 67.4155L41.2345 67.8778L41.3771 68.2338V70.9743L41.2705 71.7036L41.3958 71.9706L41.3238 72.6999L41.3771 73.2698L41.3051 73.5195V74.3205L41.1439 74.4799L40.7506 74.5331L40.8039 75.103L40.5187 75.1202L40.0895 74.9422L39.8575 74.6394V73.7679L39.7509 73.2698L39.8762 72.6467L39.7335 71.9878V70.3858L39.9482 69.8876L39.9308 69.6738L39.7349 69.3895L39.8069 68.8196L39.7535 68.6416L39.4136 68.2324L38.6632 68.5712V68.7851L38.4485 69.4798L38.3419 69.6751L38.1993 70.334L37.6461 71.5269L37.4501 71.6876L37.1649 71.7939L36.9503 71.8112L36.2891 71.7049L35.8959 71.2958L35.6279 70.7617L35.4666 70.2636L35.6093 69.9434L35.1801 69.4984L34.8948 68.7147L34.6269 68.3228L34.4482 68.1979L34.3416 67.9668L34.1457 68.3586L33.9137 68.6974L33.8244 68.9644L34.039 69.1955L34.0217 69.3549L33.6818 70.067L33.967 70.2277V72.1326L34.163 72.2575L33.8057 72.6494L33.9657 73.0413V74.003L33.8231 74.8041L33.5738 74.9994L33.2339 75.1242L32.7873 74.9994L32.5194 74.7496L32.4301 74.5543L32.4288 74.5437Z" fill="#8F5C45"/>
<path d="M44.0286 74.4546L44.1712 74.1159V73.7958L44.4218 73.457V72.8526L44.6177 72.5138L44.707 72.2468V71.8549L44.903 71.4099V71.1429L44.975 70.8042L45.2069 70.3592V70.1639L45.3136 69.6657L45.4748 69.5409L45.5468 68.8288L45.7974 68.4197V67.9747L46.0654 67.1736L46.4226 66.4802L46.316 66.4629L46.3693 66.0352L46.6372 65.5543L46.5652 65.2514L46.7265 64.8954L46.7985 64.8237L46.9238 64.5035L46.7985 64.3083L46.9598 63.668L47.1917 63.1167L47.4064 62.9214V62.4936L47.549 62.2452L47.8342 62.1031L48.2275 61.9968H48.5314L48.782 62.05L49.1926 62.2811L49.2285 62.7089L49.6218 63.296L49.9257 64.8622L50.2829 65.6632L50.3896 66.5533L50.5495 66.8734L51.0134 68.2975V68.6003L50.9414 68.8315L51.156 69.0268L51.4413 69.5781V70.1838L51.388 70.4508L51.7279 70.8786L52.0318 72.1778L52.0145 72.462L52.1398 72.5869L52.3184 72.8898L52.3904 73.2631L52.3544 73.6908L52.5144 73.9751L52.5863 74.2062L52.497 74.8651L52.1398 75.168L51.8719 75.1853L51.3533 75.079L51.0134 74.5636V74.3324L50.2989 72.8552L50.0483 72.571L49.6018 72.3571H48.3874L46.8692 72.5178L46.5839 72.6958L45.9587 73.4796L46.048 73.6576L45.5655 74.8505L45.2442 75.0644L44.887 75.1003L44.3338 75.0112L44.1019 74.816L44.0299 74.46L44.0286 74.4546ZM47.4037 70.7351H49.1712L49.4218 70.6634L49.7258 70.3605L49.6364 69.7202L49.2619 68.0291L48.9046 66.9252L48.6194 66.3022L48.4941 66.1959L47.9942 66.3739L47.7796 66.6582L47.8689 66.8004L47.7263 67.2095L47.673 67.1205L47.5117 68.0105L47.405 68.2244L47.0651 68.5446L47.2797 68.6867L47.1904 69.1317L47.0478 69.5236V69.9513L47.2091 70.1293L46.9585 70.3074L46.9758 70.5571L47.405 70.7351H47.4037Z" fill="#8F5C45"/>
</g>
<defs>
<clipPath id="clip0_67_98">
<rect width="83.8026" height="75.1632" fill="white"/>
</clipPath>
</defs>
</svg>
