<svg width="280" height="53" viewBox="0 0 280 53" fill="none" xmlns="http://www.w3.org/2000/svg">
<g clip-path="url(#clip0_67_50)">
<path d="M102.217 14.3994H98.6306V38.4008H102.217V14.3994Z" fill="#8F5C45"/>
<path d="M151.223 25.4516C152.333 24.1806 153.007 22.486 153.007 20.8834C153.007 17.5494 149.766 14.3811 146.326 14.3811H135.822V38.3825H147.072C150.895 38.3825 154.008 35.159 154.008 31.1803C154.008 28.933 152.989 26.8331 151.223 25.4332V25.4516ZM139.554 27.3857H146.781C148.893 27.441 150.313 29.0435 150.313 31.3645C150.313 33.6854 148.838 35.3432 146.799 35.3432H139.554V27.3673V27.3857ZM146.344 24.3464H139.554V17.4388H146.344C148.146 17.4388 149.33 18.8019 149.33 20.8834C149.33 22.8728 148.092 24.2911 146.344 24.328V24.3464Z" fill="#8F5C45"/>
<path d="M89.4739 32.5984C87.7809 34.4036 85.4871 35.3983 83.0296 35.3983C78.9154 35.3983 75.3656 32.58 74.4007 28.546C74.2187 27.846 74.1277 27.1276 74.1277 26.4092C74.1277 25.6909 74.2187 24.9541 74.4007 24.2541C75.3838 20.2201 78.9336 17.4202 83.0296 17.4202C85.1777 17.4202 87.2348 18.1939 88.8549 19.6122L89.5649 20.2385L91.7312 18.1939L90.912 17.4202C88.6547 15.2651 85.6874 14.0862 82.5927 14.0862C75.8753 14.0862 70.414 19.6122 70.414 26.4092C70.414 33.2063 75.8753 38.7323 82.5927 38.7323C86.0333 38.7323 89.3465 37.2403 91.6402 34.6615L92.332 33.8878L90.1838 31.8616L89.4739 32.6168V32.5984Z" fill="#8F5C45"/>
<path d="M127.12 32.5984C125.427 34.4036 123.134 35.3983 120.676 35.3983C116.562 35.3983 113.012 32.58 112.047 28.546C111.865 27.846 111.774 27.1276 111.774 26.4092C111.774 25.6909 111.865 24.9541 112.047 24.2541C113.03 20.2201 116.58 17.4202 120.676 17.4202C122.806 17.4202 124.881 18.1939 126.501 19.6122L127.211 20.2385L129.378 18.1939L128.559 17.4202C126.301 15.2651 123.334 14.0862 120.239 14.0862C113.522 14.0862 108.061 19.6122 108.061 26.4092C108.061 33.2063 113.522 38.7323 120.239 38.7323C123.68 38.7323 126.993 37.2403 129.287 34.6615L129.979 33.8878L127.83 31.8616L127.12 32.6168V32.5984Z" fill="#8F5C45"/>
<path d="M163.911 21.1961C163.911 19.3173 165.003 18.1016 166.914 18.1016C167.97 18.1016 168.48 18.341 168.607 18.3963L168.425 18.9489C168.189 18.8752 167.752 18.691 166.933 18.691C165.713 18.691 164.621 19.3541 164.621 21.0856C164.621 22.8171 165.749 23.6092 167.097 23.6092C167.643 23.6092 168.152 23.4987 168.48 23.3881L168.644 23.9407C168.425 24.0328 167.934 24.1986 166.951 24.1986C165.021 24.1986 163.911 22.9461 163.911 21.1593V21.1961Z" fill="#8F5C45"/>
<path d="M169.791 18.1936H173.068V18.7646H170.464V20.8645H172.886V21.4355H170.464V23.5539H173.268V24.1249H169.791V18.1936Z" fill="#8F5C45"/>
<path d="M174.542 18.1936H175.526L178.529 23.5354V22.7986L178.511 18.1936H179.203V24.1249H178.129L175.198 18.8567L175.234 19.4646V24.1249H174.561V18.1936H174.542Z" fill="#8F5C45"/>
<path d="M182.261 18.783H180.258V18.1936H184.955V18.783H182.953V24.1249H182.261V18.783Z" fill="#8F5C45"/>
<path d="M189.124 23.3144L188.032 21.7303C187.886 21.7487 187.668 21.7671 187.486 21.7671H186.685V24.1249H185.993V18.1936H187.904C189.033 18.1936 189.797 18.7278 189.797 19.9251C189.797 20.6251 189.47 21.2513 188.687 21.5461L189.597 22.8723C189.998 23.4249 190.435 23.5907 190.744 23.6644L190.598 24.217C190.271 24.1986 189.597 24.0328 189.088 23.3144H189.124ZM187.54 21.1961C188.45 21.1961 189.106 20.9198 189.106 19.9804C189.106 19.0409 188.632 18.7462 187.74 18.7462H186.703V21.1777H187.558L187.54 21.1961Z" fill="#8F5C45"/>
<path d="M191.236 21.1409C191.236 19.2805 192.456 18.1016 194.258 18.1016C196.151 18.1016 197.098 19.4278 197.098 21.1593C197.098 22.8908 195.969 24.217 194.094 24.217C192.219 24.217 191.218 22.9461 191.218 21.1409H191.236ZM196.424 21.1409C196.424 19.7225 195.623 18.6726 194.185 18.6726C192.747 18.6726 191.909 19.741 191.909 21.1409C191.909 22.5408 192.656 23.6644 194.13 23.6644C195.696 23.6644 196.424 22.5777 196.424 21.1593V21.1409Z" fill="#8F5C45"/>
<path d="M200.247 18.1936H201.83C203.724 18.1936 205.089 19.2067 205.089 21.1408C205.089 23.2223 203.851 24.1249 201.885 24.1249H200.265V18.1936H200.247ZM201.958 23.5539C203.487 23.5539 204.397 22.7802 204.397 21.2329C204.397 19.5567 203.36 18.7646 201.794 18.7646H200.92V23.5539H201.958Z" fill="#8F5C45"/>
<path d="M207.965 18.1936H208.894L211.005 24.1249H210.277L209.513 21.9145H207.182L206.327 24.1249H205.635L207.983 18.1936H207.965ZM209.312 21.3619L208.402 18.6909L207.401 21.3619H209.312Z" fill="#8F5C45"/>
<path d="M211.898 23.8672L212.134 23.3146C212.571 23.4988 212.972 23.6277 213.518 23.6277C214.173 23.6277 214.92 23.4067 214.92 22.633C214.92 21.141 212.043 21.491 212.043 19.5569C212.043 18.599 212.844 18.1201 213.773 18.1201C214.446 18.1201 214.847 18.2491 215.193 18.4148L215.011 18.9306C214.665 18.8017 214.337 18.7096 213.791 18.7096C213.154 18.7096 212.681 18.9674 212.681 19.5569C212.681 20.8831 215.575 20.7174 215.575 22.6146C215.575 23.7567 214.647 24.254 213.518 24.254C212.662 24.254 212.207 24.0698 211.88 23.8856L211.898 23.8672Z" fill="#8F5C45"/>
<path d="M218.724 18.1936H219.398V24.1249H218.724V18.1936Z" fill="#8F5C45"/>
<path d="M221.218 18.1936H222.201L225.205 23.5354V22.7986L225.187 18.1936H225.879V24.1249H224.805L221.874 18.8567L221.91 19.4646V24.1249H221.236V18.1936H221.218Z" fill="#8F5C45"/>
<path d="M227.517 18.1936H229.101C230.994 18.1936 232.359 19.2067 232.359 21.1408C232.359 23.2223 231.121 24.1249 229.155 24.1249H227.535V18.1936H227.517ZM229.228 23.5539C230.757 23.5539 231.667 22.7802 231.667 21.2329C231.667 19.5567 230.63 18.7646 229.064 18.7646H228.19V23.5539H229.228Z" fill="#8F5C45"/>
<path d="M233.633 22.0621V18.1938H234.343V22.0068C234.343 23.3146 235.163 23.6278 236 23.6278C236.91 23.6278 237.675 23.2225 237.675 21.8042V18.1938H238.33V21.841C238.33 23.7383 237.038 24.2356 236 24.2356C234.853 24.2356 233.633 23.7935 233.633 22.0621ZM235.308 17.3833L237.147 16.7202L237.329 17.3097L235.454 17.8623L235.308 17.3833Z" fill="#8F5C45"/>
<path d="M239.513 23.8672L239.75 23.3146C240.187 23.4988 240.587 23.6277 241.133 23.6277C241.789 23.6277 242.535 23.4067 242.535 22.633C242.535 21.141 239.659 21.491 239.659 19.5569C239.659 18.599 240.46 18.1201 241.388 18.1201C242.062 18.1201 242.462 18.2491 242.808 18.4148L242.626 18.9306C242.28 18.8017 241.953 18.7096 241.406 18.7096C240.769 18.7096 240.296 18.9674 240.296 19.5569C240.296 20.8831 243.19 20.7174 243.19 22.6146C243.19 23.7567 242.262 24.254 241.133 24.254C240.278 24.254 239.823 24.0698 239.495 23.8856L239.513 23.8672Z" fill="#8F5C45"/>
<path d="M245.848 18.783H243.846V18.1936H248.543V18.783H246.54V24.1249H245.848V18.783Z" fill="#8F5C45"/>
<path d="M252.73 23.3144L251.638 21.7303C251.492 21.7487 251.255 21.7671 251.092 21.7671H250.291V24.1249H249.599V18.1936H251.51C252.639 18.1936 253.404 18.7278 253.404 19.9251C253.404 20.6251 253.076 21.2513 252.293 21.5461L253.203 22.8723C253.604 23.4249 254.059 23.5907 254.35 23.6644L254.204 24.217C253.877 24.1986 253.203 24.0328 252.694 23.3144H252.73ZM251.146 21.1961C252.056 21.1961 252.712 20.9198 252.712 19.9804C252.712 19.0409 252.238 18.7462 251.346 18.7462H250.309V21.1777H251.164L251.146 21.1961Z" fill="#8F5C45"/>
<path d="M255.497 18.1936H256.17V24.1249H255.497V18.1936Z" fill="#8F5C45"/>
<path d="M259.629 18.1936H260.558L262.669 24.1249H261.941L261.177 21.9145H258.847L257.991 24.1249H257.299L259.648 18.1936H259.629ZM260.976 21.3619L260.066 18.6909L259.065 21.3619H260.976Z" fill="#8F5C45"/>
<path d="M263.489 23.8672L263.725 23.3146C264.162 23.4988 264.563 23.6277 265.109 23.6277C265.764 23.6277 266.511 23.4067 266.511 22.633C266.511 21.141 263.634 21.491 263.634 19.5569C263.634 18.599 264.435 18.1201 265.364 18.1201C266.037 18.1201 266.438 18.2491 266.784 18.4148L266.602 18.9306C266.256 18.8017 265.928 18.7096 265.382 18.7096C264.745 18.7096 264.271 18.9674 264.271 19.5569C264.271 20.8831 267.166 20.7174 267.166 22.6146C267.166 23.7567 266.238 24.254 265.109 24.254C264.253 24.254 263.798 24.0698 263.47 23.8856L263.489 23.8672Z" fill="#8F5C45"/>
<path d="M270.315 18.1936H271.899C273.792 18.1936 275.158 19.2067 275.158 21.1408C275.158 23.2223 273.92 24.1249 271.954 24.1249H270.334V18.1936H270.315ZM272.026 23.5539C273.556 23.5539 274.466 22.7802 274.466 21.2329C274.466 19.5567 273.428 18.7646 271.863 18.7646H270.989V23.5539H272.026Z" fill="#8F5C45"/>
<path d="M276.523 18.1936H279.8V18.7646H277.197V20.8645H279.618V21.4355H277.197V23.5539H280V24.1249H276.523V18.1936Z" fill="#8F5C45"/>
<path d="M163.838 32.6166C163.838 30.6272 164.931 29.522 166.969 29.522C167.916 29.522 168.426 29.7062 168.753 29.8535L168.462 30.7193C168.025 30.5903 167.716 30.4982 167.006 30.4798C165.877 30.4798 165.022 31.1061 165.022 32.5245C165.022 33.9428 165.932 34.6612 167.17 34.6612C167.734 34.6612 168.134 34.5875 168.535 34.477L168.79 35.3611C168.353 35.5269 167.861 35.6374 167.024 35.6374C164.967 35.6374 163.856 34.4954 163.856 32.6166H163.838Z" fill="#8F5C45"/>
<path d="M169.755 33.2614V29.6143H170.901V33.2246C170.901 34.2745 171.466 34.7166 172.34 34.7166C173.213 34.7166 173.778 34.2377 173.778 33.0404V29.6143H174.888V33.0588C174.888 35.0666 173.541 35.6561 172.34 35.6561C171.138 35.6561 169.755 35.1035 169.755 33.2614Z" fill="#8F5C45"/>
<path d="M179.111 34.4403L178.292 33.3535C178.183 33.3535 178.019 33.372 177.892 33.372H177.327V35.5455H176.199V29.6143H178.347C179.585 29.6143 180.477 30.2037 180.477 31.4747C180.477 32.1378 180.167 32.7457 179.475 33.0957L180.204 33.9982C180.55 34.4219 180.95 34.643 181.46 34.7719L181.205 35.6561C180.368 35.6192 179.73 35.1771 179.148 34.4587L179.111 34.4403ZM177.928 32.5431C178.784 32.5431 179.257 32.2115 179.257 31.5115C179.257 30.8116 178.929 30.5168 178.128 30.5168H177.309V32.5431H177.928Z" fill="#8F5C45"/>
<path d="M183.098 30.5353H181.205V29.6143H186.138V30.5353H184.245V35.564H183.116V30.5353H183.098Z" fill="#8F5C45"/>
<path d="M186.848 33.2614V29.6143H187.995V33.2246C187.995 34.2745 188.559 34.7166 189.433 34.7166C190.307 34.7166 190.871 34.2377 190.871 33.0404V29.6143H191.982V33.0588C191.982 35.0666 190.635 35.6561 189.433 35.6561C188.232 35.6561 186.848 35.1035 186.848 33.2614Z" fill="#8F5C45"/>
<path d="M193.53 29.6143H194.968L196.715 34.6061L198.7 29.6143H200.083V35.5455H198.954V32.5615L198.991 31.3457L197.371 35.5455H196.024L194.604 31.2905L194.676 32.5615V35.5455H193.548V29.6143H193.53Z" fill="#8F5C45"/>
<path d="M201.648 29.6141H205.289V30.5167H202.777V32.1377H205.107V32.985H202.777V34.6244H205.471V35.527H201.648V29.5957V29.6141Z" fill="#8F5C45"/>
<path d="M206.345 35.2506L206.673 34.4033C207.165 34.5875 207.547 34.6796 208.166 34.6796C208.858 34.6796 209.349 34.4586 209.349 33.9428C209.349 32.7823 206.527 33.0771 206.527 31.0877C206.527 30.0193 207.492 29.522 208.494 29.522C209.331 29.522 209.75 29.7062 210.168 29.8904L209.841 30.7009C209.44 30.5719 209.094 30.4614 208.53 30.4614C207.929 30.4614 207.638 30.7009 207.638 31.0693C207.638 32.0639 210.496 32.0087 210.496 33.8875C210.496 35.1217 209.386 35.6374 208.202 35.6374C207.274 35.6374 206.764 35.4532 206.364 35.2506H206.345Z" fill="#8F5C45"/>
<path d="M213.554 29.6143H215.447C217.432 29.6143 218.815 30.5537 218.815 32.5615C218.815 34.5693 217.559 35.5455 215.502 35.5455H213.554V29.6143ZM215.593 34.643C216.995 34.643 217.668 33.9614 217.668 32.6536C217.668 31.2352 216.886 30.5353 215.411 30.5353H214.665V34.6614H215.593V34.643Z" fill="#8F5C45"/>
<path d="M219.725 32.5613C219.725 30.7009 220.945 29.522 222.875 29.522C224.914 29.522 225.86 30.8298 225.86 32.5797C225.86 34.4401 224.732 35.6374 222.729 35.6374C220.727 35.6374 219.725 34.4217 219.725 32.5613ZM224.713 32.5613C224.713 31.3271 224.094 30.4246 222.82 30.4246C221.546 30.4246 220.891 31.3456 220.891 32.5429C220.891 33.7402 221.455 34.7164 222.766 34.7164C224.167 34.7164 224.732 33.777 224.732 32.5613H224.713Z" fill="#8F5C45"/>
<path d="M228.955 29.6143H230.848C232.25 29.6143 232.923 30.1669 232.923 31.18C232.923 31.8799 232.45 32.2115 232.25 32.322C232.505 32.4325 233.342 32.7825 233.342 33.7588C233.342 34.8087 232.741 35.5455 231.085 35.5455H228.955V29.6143ZM230.739 32.1194C231.467 32.1194 231.777 31.9352 231.777 31.3273C231.777 30.7195 231.394 30.4984 230.63 30.4984H230.084V32.1194H230.739ZM230.921 34.643C231.704 34.643 232.195 34.4403 232.195 33.7956C232.195 33.0957 231.685 32.9299 230.757 32.9299H230.084V34.643H230.921Z" fill="#8F5C45"/>
<path d="M237.347 34.4403L236.528 33.3535C236.418 33.3535 236.255 33.372 236.127 33.372H235.563V35.5455H234.434V29.6143H236.582C237.82 29.6143 238.712 30.2037 238.712 31.4747C238.712 32.1378 238.403 32.7457 237.711 33.0957L238.439 33.9982C238.785 34.4219 239.186 34.643 239.695 34.7719L239.44 35.6561C238.603 35.6192 237.966 35.1771 237.383 34.4587L237.347 34.4403ZM236.164 32.5431C237.019 32.5431 237.493 32.2115 237.493 31.5115C237.493 30.8116 237.165 30.5168 236.364 30.5168H235.545V32.5431H236.164Z" fill="#8F5C45"/>
<path d="M242.663 29.6143H244.137L246.176 35.5455H244.993L244.337 33.6298H242.226L241.498 35.5455H240.369L242.663 29.6143ZM244.064 32.7825L243.354 30.3511L242.553 32.7825H244.064Z" fill="#8F5C45"/>
<path d="M246.613 35.2506L246.941 34.4033C247.433 34.5875 247.815 34.6796 248.434 34.6796C249.126 34.6796 249.617 34.4586 249.617 33.9428C249.617 32.7823 246.795 33.0771 246.795 31.0877C246.795 30.0193 247.76 29.522 248.761 29.522C249.599 29.522 250.018 29.7062 250.436 29.8904L250.109 30.7009C249.708 30.5719 249.362 30.4614 248.798 30.4614C248.197 30.4614 247.906 30.7009 247.906 31.0693C247.906 32.0639 250.764 32.0087 250.764 33.8875C250.764 35.1217 249.653 35.6374 248.47 35.6374C247.542 35.6374 247.032 35.4532 246.632 35.2506H246.613Z" fill="#8F5C45"/>
<path d="M251.929 29.6143H253.057V35.5455H251.929V29.6143Z" fill="#8F5C45"/>
<path d="M254.623 29.6143H255.751V34.6245H258.3V35.5455H254.623V29.6143Z" fill="#8F5C45"/>
<path d="M54.6674 52.3999L53.9392 52.3631C44.5822 51.921 35.6985 49.1948 29.5637 44.8292L28.2711 43.9266L29.7457 42.8767C29.7457 42.8767 29.9095 42.7662 29.9823 42.7109C30.3282 42.453 30.6559 42.1952 30.9654 41.9373C34.9703 38.6585 37.5735 32.5614 37.5917 26.4275C37.5917 20.2015 34.9885 14.1045 30.9654 10.8257C30.6559 10.5678 30.31 10.3099 29.9823 10.052L28.2711 8.83632L29.5454 7.93373C35.6985 3.62342 44.5822 0.878825 53.9392 0.436743L54.6674 0.399902L60.4199 12.244L59.3823 12.723C54.2487 15.0623 48.9876 20.6252 49.3517 26.3354V26.4091V26.4828C48.9694 32.193 54.2304 37.7559 59.3823 40.0953L60.4199 40.5742L54.6674 52.4183V52.3999ZM32.1305 43.8714C37.6828 47.3712 45.2739 49.6185 53.3202 50.0974L57.4344 41.6241C51.8821 38.6953 46.7667 32.7825 47.1308 26.4091C46.7485 20.0357 51.8639 14.1045 57.4344 11.1941L53.3202 2.72084C45.2739 3.19976 37.6828 5.4286 32.1305 8.92842C32.2033 8.98368 32.2943 9.05736 32.3671 9.11262C36.8818 12.7966 39.7945 19.5568 39.8127 26.3539C39.8127 33.243 36.8818 40.0032 32.3671 43.6872C32.2943 43.7609 32.2033 43.8161 32.1305 43.8898V43.8714Z" fill="#8F5C45"/>
<path d="M5.75255 52.3999L0 40.5558L1.03764 40.0768C6.17125 37.7375 11.4323 32.1746 11.0682 26.4644V26.3907V26.317C11.4505 20.6068 6.18945 15.0439 1.03764 12.7045L0 12.2256L5.75255 0.399902L6.48072 0.436743C15.8377 0.878825 24.7214 3.62342 30.8563 7.97057L32.1488 8.87316L30.6742 9.92311C30.6742 9.92311 30.5104 10.0336 30.4376 10.0889C30.0917 10.3468 29.764 10.6046 29.4545 10.8625C25.4496 14.1413 22.8464 20.2384 22.8282 26.3723C22.8282 32.5983 25.4314 38.6953 29.4545 41.9557C29.7822 42.2136 30.1099 42.4715 30.4376 42.7293L32.1488 43.9451L30.8745 44.8477C24.7396 49.1948 15.8741 51.921 6.51713 52.3631L5.78896 52.3999H5.75255ZM2.9673 41.6241L7.09967 50.0974C15.146 49.6185 22.7189 47.3712 28.2894 43.8714C28.2166 43.8161 28.1256 43.7424 28.0528 43.6872C23.5381 40.0032 20.6254 33.243 20.6072 26.446C20.6072 19.5568 23.5381 12.7966 28.0528 9.11262C28.1256 9.03894 28.2166 8.98368 28.2894 8.91C22.7371 5.41017 15.146 3.16292 7.09967 2.684L2.9673 11.1757C8.5196 14.1045 13.635 20.0173 13.2709 26.3907C13.6532 32.7641 8.53781 38.6953 2.9673 41.6057V41.6241Z" fill="#8F5C45"/>
<path d="M30.2008 45.3085L29.3816 44.719C29.2906 44.6637 29.1996 44.5901 29.1086 44.5164C28.7445 44.2401 28.3804 43.9638 28.0345 43.6875C23.5198 40.0035 20.6072 33.2433 20.589 26.4463C20.589 19.5571 23.5198 12.7969 28.0345 9.11291C28.3804 8.83661 28.7445 8.56031 29.1086 8.28401C29.1996 8.21033 29.3088 8.13665 29.418 8.06297L30.219 7.49194L31.0382 8.08139C31.1292 8.13665 31.2203 8.21033 31.3113 8.28401C31.6754 8.56031 32.0395 8.83661 32.3853 9.11291C36.9 12.7969 39.8127 19.5755 39.8309 26.3541C39.8309 33.2433 36.9 40.0035 32.3853 43.6875C32.0395 43.9638 31.6754 44.2401 31.3113 44.5164C31.2203 44.5901 31.111 44.6637 31.0018 44.7374L30.2008 45.3085ZM30.2008 10.2365C29.9278 10.4392 29.6729 10.6418 29.418 10.8444C25.4131 14.1232 22.8099 20.2018 22.7917 26.3541C22.7917 32.5802 25.3949 38.6772 29.418 41.956C29.6729 42.1586 29.9278 42.3612 30.1826 42.5639C30.4557 42.3612 30.7105 42.1586 30.9654 41.956C34.9703 38.6772 37.5735 32.5986 37.5918 26.4463C37.5918 20.2203 34.9885 14.1232 30.9654 10.8444C30.7105 10.6418 30.4557 10.4392 30.2008 10.2365Z" fill="#8F5C45"/>
</g>
<defs>
<clipPath id="clip0_67_50">
<rect width="280" height="52" fill="white" transform="translate(0 0.399902)"/>
</clipPath>
</defs>
</svg>
